<svg xmlns="http://www.w3.org/2000/svg" viewBox="0 0 80 80">
  <!-- Classic 90s 2D Mistletoe -->
  <!-- Leaves -->
  <ellipse cx="30" cy="35" rx="15" ry="20" fill="#00AA00" stroke="#000" stroke-width="2" transform="rotate(-20 30 35)"/>
  <ellipse cx="50" cy="35" rx="15" ry="20" fill="#00AA00" stroke="#000" stroke-width="2" transform="rotate(20 50 35)"/>
  <ellipse cx="25" cy="50" rx="15" ry="20" fill="#00AA00" stroke="#000" stroke-width="2" transform="rotate(-30 25 50)"/>
  <ellipse cx="55" cy="50" rx="15" ry="20" fill="#00AA00" stroke="#000" stroke-width="2" transform="rotate(30 55 50)"/>
  
  <!-- Berries -->
  <circle cx="35" cy="45" r="6" fill="#FF0000" stroke="#000" stroke-width="1.5"/>
  <circle cx="45" cy="45" r="6" fill="#FF0000" stroke="#000" stroke-width="1.5"/>
  <circle cx="40" cy="52" r="6" fill="#FF0000" stroke="#000" stroke-width="1.5"/>
  
  <!-- Highlights on berries -->
  <circle cx="37" cy="43" r="2" fill="#FF6666" stroke="none"/>
  <circle cx="47" cy="43" r="2" fill="#FF6666" stroke="none"/>
  <circle cx="42" cy="50" r="2" fill="#FF6666" stroke="none"/>
  
  <!-- Bow -->
  <path d="M 30,60 L 40,65 L 30,70 Z" fill="#FFFF00" stroke="#000" stroke-width="1.5"/>
  <path d="M 50,60 L 40,65 L 50,70 Z" fill="#FFFF00" stroke="#000" stroke-width="1.5"/>
  <circle cx="40" cy="65" r="4" fill="#FFFF00" stroke="#000" stroke-width="1.5"/>
  <path d="M 40,65 L 40,75" stroke="#FFFF00" stroke-width="3" stroke-linecap="round"/>
</svg>
